<?xml version="1.0" encoding="UTF-8"?>
<svg id="Layer_1" data-name="Layer 1" xmlns="http://www.w3.org/2000/svg" viewBox="0 0 841.89 595.28">
  <defs>
    <style>
      .cls-1 {
        fill: #101427;
      }

      .cls-2 {
        fill: #07a3b1;
      }
    </style>
  </defs>
  <path class="cls-2" d="m613.36,228.27c-.21-.56-.13-.88.41-.93.3-.03.61-.02.91-.02,18.96,0,37.92,0,56.88-.02.87,0,1.46.28,2.04.88,1.53,1.59,3.13,3.13,4.68,4.71.43.44.87.62,1.48.62,11.8-.01,23.6-.02,35.4,0,.62,0,1.05-.2,1.48-.63,2.35-2.38,4.74-4.71,7.06-7.11.6-.62,1.22-.83,2.05-.83,8.16.02,16.31,0,24.47.03.9,0,1.53-.26,2.16-.9,5.81-5.85,11.66-11.65,17.46-17.51.74-.74,1.47-1.05,2.51-1.02,2.38.07,4.76.02,7.1.02,1.2-2.48,2.58-3.37,4.38-2.91,1.68.43,2.7,1.81,2.62,3.55-.08,1.62-1.22,2.88-2.91,3.19-1.7.31-3.13-.7-4.01-2.98-.57,0-1.21,0-1.84,0-1.74,0-3.47.04-5.21-.02-.81-.03-1.37.25-1.93.81-5.87,5.91-11.78,11.78-17.64,17.69-.73.74-1.46,1.03-2.5,1.03-7.94-.04-15.88,0-23.82-.05-1.17,0-2.02.27-2.84,1.15-2.14,2.27-4.41,4.43-6.6,6.65-.52.53-1.04.79-1.81.79-11.93-.02-23.86-.02-35.79,0-.76,0-1.3-.23-1.82-.77-1.47-1.53-3.04-2.98-4.48-4.53-.66-.71-1.35-.91-2.28-.91-18.7.02-37.4.02-56.1.02-.51,0-1.03,0-1.51,0Z"/>
  <path class="cls-1" d="m360.17,170.58v134.77h-41.37v-134.77h41.37Z"/>
  <path class="cls-2" d="m506.14,228.27c-.48,0-.99,0-1.51,0-18.7,0-37.39,0-56.09-.02-1.05,0-1.78.28-2.49,1.04-1.42,1.52-2.94,2.95-4.39,4.44-.48.49-.98.74-1.7.74-11.97-.02-23.94-.02-35.92,0-.71,0-1.22-.22-1.71-.72-2.34-2.38-4.73-4.71-7.07-7.1-.53-.54-1.07-.75-1.82-.75-8.2.02-16.4,0-24.59.03-.9,0-1.53-.25-2.16-.88-5.9-5.94-11.83-11.84-17.73-17.78-.59-.6-1.18-.89-2.04-.86-2.3.06-4.6.02-6.96.02-.16.36-.3.71-.47,1.05-.71,1.45-2.28,2.22-3.77,1.88-1.65-.38-2.76-1.71-2.78-3.32-.02-1.6,1.1-2.99,2.71-3.38,1.49-.36,3.06.39,3.8,1.83.16.3.27.63.47,1.09h1.36c1.95,0,3.91.04,5.86-.02.98-.03,1.69.25,2.39.96,5.8,5.86,11.65,11.66,17.45,17.51.66.67,1.31.95,2.26.95,8.11-.04,16.22,0,24.33-.04.95,0,1.61.27,2.27.95,2.26,2.34,4.6,4.6,6.88,6.92.5.51,1,.71,1.71.7,11.71-.02,23.42-.02,35.13,0,.72,0,1.21-.24,1.69-.74,1.48-1.53,3.03-2.98,4.49-4.53.65-.69,1.32-.95,2.27-.95,9.37.03,18.74.02,28.11.02,9.46,0,18.91,0,28.37,0,.39,0,.78,0,1.17.01.57.02.6.37.46.94Z"/>
  <path class="cls-1" d="m134.14,305.35l-7.62-26.56h-36.1l-8.09,26.56h-33.58l41.6-134.77h43.74l42.27,134.77h-42.22Zm-36.69-55.98h21.8l-10.9-39.09-10.9,39.09Z"/>
  <path class="cls-1" d="m230.73,256.38v48.97h-41.96v-134.77h57.56c14.35,0,25.26,1.65,32.73,4.94,7.47,3.29,13.39,8.33,17.77,15.11,4.38,6.78,6.57,14.38,6.57,22.81,0,12.84-4.48,23.2-13.43,31.1-8.95,7.9-20.9,11.85-35.84,11.85h-23.4Zm-.59-28.93h13.82c12.18,0,18.27-4.48,18.27-13.43,0-8.42-5.63-12.64-16.88-12.64h-15.2v26.07Z"/>
  <path class="cls-1" d="m457.82,253.91l37.81,2.27c-1.78,16.52-7.88,29.19-18.32,38.01-10.43,8.82-23.25,13.23-38.46,13.23-18.3,0-33.08-6.06-44.33-18.17-11.26-12.11-16.88-28.83-16.88-50.16s5.33-38.18,15.99-51.14c10.66-12.97,25.54-19.45,44.63-19.45,17.84,0,31.54,4.94,41.12,14.81,9.58,9.87,14.99,22.97,16.24,39.3l-38.6,2.07c0-9.02-1.73-15.53-5.18-19.55-3.46-4.01-7.52-6.02-12.19-6.02-13.03,0-19.55,13.1-19.55,39.3,0,14.68,1.69,24.65,5.08,29.92,3.39,5.27,8.15,7.9,14.27,7.9,10.93,0,17.05-7.44,18.36-22.31Z"/>
  <path class="cls-1" d="m727.55,305.35h-39.39v-63.19c0-5.2-.81-8.52-2.42-9.97-1.61-1.45-3.64-2.17-6.07-2.17-7.18,0-10.76,5-10.76,15.01v60.33h-39.39v-100.41h36.53v14.22c5.4-10.86,15.04-16.29,28.93-16.29,7.31,0,13.48,1.4,18.51,4.2,5.04,2.8,8.64,6.42,10.81,10.86s3.26,12.16,3.26,23.15v64.27Z"/>
  <path class="cls-2" d="m520.19,256.11c.17-22.15,18.09-39.44,39.69-39.2,21.94.24,38.92,18.19,38.86,39.35-.06,21.59-17.74,39.38-39.73,39.14-20.9-.23-38.69-17.1-38.83-39.29Zm76.23.09c.13-19.62-15.73-36.92-36.83-36.99-20.49-.08-37.04,16.42-37.06,36.9-.02,20.77,16.82,36.88,36.71,36.99,20.76.12,37.25-16.85,37.18-36.9Z"/>
  <path class="cls-2" d="m786.21,268.88c1.1-2.34,2.49-3.22,4.37-2.78,1.55.36,2.61,1.81,2.56,3.48-.05,1.58-1.21,2.97-2.72,3.2-1.54.23-3.24-.15-4.19-2.86-.46,0-.96,0-1.47,0-8.07,0-16.14-.01-24.21.02-.89,0-1.55-.22-2.17-.88-1.24-1.33-2.59-2.56-3.84-3.89-.55-.59-1.14-.8-1.94-.8-5.03.03-10.06.02-15.1.02-11.37,0-22.73-.01-34.1.02-.95,0-1.61-.27-2.27-.95-2.6-2.67-5.28-5.27-7.88-7.94-.67-.69-1.35-.92-2.28-.92-21,.02-41.99.02-62.99.02-.43,0-.87,0-1.3-.05-.12-.01-.32-.24-.3-.32.04-.17.18-.4.33-.44.28-.08.6-.06.9-.06,21.34,0,42.69,0,64.03-.02.8,0,1.37.24,1.93.81,2.64,2.69,5.35,5.33,7.98,8.03.63.64,1.26.89,2.16.89,16.31-.03,32.62,0,48.93-.04,1.09,0,1.86.28,2.6,1.09,1.22,1.35,2.56,2.59,3.85,3.88.35.35.69.59,1.23.59,8.5-.02,17-.01,25.51-.02.13,0,.25-.05.37-.07Z"/>
  <path class="cls-2" d="m491.86,254.47h-2c-20.87,0-41.74,0-62.61-.02-1.09,0-1.85.3-2.61,1.09-2.53,2.62-5.16,5.15-7.7,7.76-.7.72-1.42.97-2.4.97-16.23-.02-32.45,0-48.68-.04-1.07,0-1.88.23-2.62,1.06-1.15,1.29-2.46,2.44-3.65,3.71-.55.59-1.13.8-1.93.79-8.11-.03-16.23-.02-24.34-.02-.47,0-.95,0-1.46,0-.46,1.14-.95,2.26-2.18,2.63-.72.21-1.55.3-2.28.16-1.49-.28-2.58-1.86-2.51-3.38.06-1.51,1.17-2.88,2.59-3.22,1.88-.44,3.24.42,4.43,2.86.33,0,.71,0,1.1,0,8.07,0,16.14-.01,24.21.02.85,0,1.46-.24,2.04-.86,1.22-1.3,2.54-2.5,3.75-3.8.61-.66,1.25-.91,2.15-.91,8.5.03,17.01.02,25.51.02,7.81,0,15.62-.02,23.43.03,1.1,0,1.85-.33,2.59-1.1,2.54-2.62,5.16-5.15,7.7-7.76.63-.65,1.28-.88,2.17-.88,21.26.02,42.52.02,63.78.02.35,0,.71-.03,1.03.07.16.05.23.36.48.8Z"/>
  <path class="cls-2" d="m447,241.56h-1.49c-22.2,0-44.41,0-66.61-.02-1.04,0-1.87.19-2.48,1.05-1.05,1.47-2.47,1.82-4.26,1.81-9.84-.09-19.69-.04-29.53-.04h-1.5c-1.33,2.76-2.84,3.77-4.84,3.3-1.87-.44-3.08-1.95-3.07-3.83,0-1.82,1.25-3.39,2.99-3.77,2.13-.47,3.61.52,4.92,3.34h1.25c10.19,0,20.38-.01,30.57.02.95,0,1.7-.19,2.24-.97,1.1-1.6,2.63-1.87,4.5-1.86,21.86.06,43.72.04,65.57.04.43,0,.87-.01,1.3.01.53.03.65.33.44.93Zm-107,2.32c.02-1.62-1.21-2.89-2.83-2.93-1.73-.03-3,1.18-3,2.87,0,1.68,1.29,2.98,2.95,2.96,1.59-.02,2.86-1.3,2.88-2.91Z"/>
  <path class="cls-2" d="m671.98,241.56c-.13-.55-.12-.88.38-.92.3-.02.61-.02.91-.02,22.52,0,45.04,0,67.56-.02.81,0,1.46.17,1.92.83,1.18,1.72,2.82,2.02,4.83,2,9.59-.09,19.18-.04,28.77-.04h1.62c.35-1.29.95-2.35,2.14-2.98.85-.45,1.75-.52,2.66-.35,1.77.34,3.06,2.03,3.01,3.89-.05,1.9-1.42,3.46-3.33,3.77-1.92.32-3.6-.89-4.49-3.37h-1.45c-10.24,0-20.48-.01-30.72.02-1.04,0-1.87-.2-2.48-1.05-1.05-1.48-2.47-1.8-4.26-1.8-21.82.06-43.65.04-65.47.04-.52,0-1.03,0-1.6,0Zm109.97,5.23c1.64-.03,2.96-1.42,2.9-3.05-.06-1.6-1.35-2.8-3-2.79-1.61.02-2.9,1.3-2.91,2.89,0,1.62,1.37,2.97,3.01,2.95Z"/>
  <path class="cls-2" d="m498.22,266.86c-.17.18-.32.47-.52.52-.42.09-.86.05-1.3.05-11.63,0-23.25.01-34.88-.02-.99,0-1.69.28-2.39.99-4.73,4.78-9.52,9.5-14.23,14.29-.81.82-1.61,1.1-2.73,1.1-7.16-.04-14.32-.02-21.47-.02h-1.51c-1.17,2.43-2.49,3.32-4.23,2.93-1.72-.38-2.79-1.72-2.76-3.44.03-1.65,1.13-2.95,2.78-3.29,1.74-.36,3.08.54,4.16,2.86.37.02.79.06,1.22.06,7.25,0,14.49-.01,21.74.02.9,0,1.53-.28,2.16-.92,4.86-4.9,9.75-9.76,14.61-14.65.56-.56,1.11-.82,1.93-.82,12.02.03,24.03.02,36.05.02.38,0,.77.03,1.15.05.08.09.15.18.23.27Z"/>
  <path class="cls-2" d="m660.25,285.7c-.06,1.65-1.16,2.89-2.85,3.23-1.73.34-3.01-.55-4.12-2.94-.55,0-1.16-.05-1.75,0-.9.09-1.54-.24-2.15-.91-1.11-1.21-2.35-2.31-3.47-3.52-.58-.63-1.21-.83-2.05-.83-10.24.02-20.49.02-30.73.02v-.96c10.36,0,20.72,0,31.09-.02.89,0,1.55.24,2.15.89,1.12,1.21,2.36,2.31,3.47,3.52.62.67,1.28.96,2.17.87.42-.05.86,0,1.23,0,1.35-2.48,2.67-3.3,4.45-2.81,1.62.44,2.61,1.79,2.56,3.47Z"/>
  <path class="cls-2" d="m505.94,280.12c-.17.18-.32.46-.52.5-.37.09-.77.05-1.16.05-8.24,0-16.49.02-24.73-.02-1.04,0-1.77.32-2.49,1.05-3.31,3.38-6.68,6.69-10.01,10.05-.56.56-1.1.82-1.92.82-14.97-.03-29.94-.02-44.9-.02h-1.12c-.22-.55-.17-.88.38-.92.43-.03.87-.02,1.3-.02,14.53,0,29.07-.01,43.6.02,1.04,0,1.77-.28,2.5-1.03,3.31-3.38,6.68-6.69,10.01-10.05.52-.53,1.04-.79,1.8-.79,8.68.03,17.35.02,26.03.02.34,0,.68.03,1.02.05.07.09.14.19.21.28Z"/>
  <path class="cls-2" d="m562.45,300.2c.12,3.56.23,7.15.36,10.82-2.21.34-4.31.25-6.58.06.12-3.7.24-7.32.35-10.92,1.21-.34,4.86-.31,5.87.04Z"/>
  <path class="cls-2" d="m562.5,212.3h-5.9c-.13-3.66-.26-7.27-.39-10.97,2.18-.41,4.27-.32,6.54-.07.05,3.66-.31,7.29-.26,11.04Z"/>
  <path class="cls-2" d="m596.09,214.9c1.58,1.59,3.07,3.09,4.66,4.68-2.75,2.58-5.43,5.08-8.02,7.52-1.39-1.39-2.73-2.72-4.16-4.15,2.41-2.58,4.89-5.23,7.52-8.05Z"/>
  <path class="cls-2" d="m522.93,297.39c-1.58-1.57-3.08-3.06-4.68-4.65,2.75-2.58,5.42-5.08,8.01-7.5,1.39,1.39,2.72,2.72,4.16,4.16-2.36,2.52-4.86,5.2-7.48,7.99Z"/>
  <path class="cls-2" d="m592.73,285.2c2.57,2.41,5.22,4.88,7.97,7.46-1.42,1.7-2.96,3.17-4.65,4.68-2.56-2.73-5.05-5.4-7.48-7.99,1.43-1.43,2.76-2.76,4.16-4.15Z"/>
  <path class="cls-2" d="m522.93,214.9c2.59,2.77,5.08,5.42,7.52,8.02-1.4,1.35-2.76,2.65-4.24,4.08-2.45-2.29-5.13-4.79-7.94-7.42,1.57-1.57,3.08-3.08,4.67-4.67Z"/>
  <path class="cls-2" d="m515.62,259.09c-3.69.12-7.3.23-11.03.35-.21-2.19-.17-4.29-.02-6.57,3.69.12,7.33.23,11.05.35v5.87Z"/>
  <path class="cls-2" d="m614.49,252.86v6.57c-3.75-.12-7.38-.24-11.08-.36v-5.86c3.7-.12,7.34-.24,11.08-.36Z"/>
  <path class="cls-2" d="m600.15,232.85c1.49-.76,2.82-1.44,4.28-2.18.73,1.45,1.43,2.81,2.16,4.27-1.43.73-2.76,1.42-4.27,2.19-.71-1.4-1.41-2.76-2.18-4.27Z"/>
  <path class="cls-2" d="m588.27,293.1c.96,1.37,1.82,2.6,2.76,3.94-1.34.94-2.59,1.81-3.94,2.75-.93-1.33-1.79-2.56-2.75-3.93,1.3-.92,2.56-1.8,3.93-2.76Z"/>
  <path class="cls-2" d="m579.96,303.57c-.74-1.51-1.39-2.86-2.1-4.31,1.46-.72,2.84-1.39,4.3-2.11.72,1.46,1.38,2.8,2.11,4.3-1.44.71-2.81,1.38-4.31,2.12Z"/>
  <path class="cls-2" d="m585.18,216.98c1-1.35,1.89-2.56,2.85-3.86,1.29.94,2.5,1.83,3.85,2.81-.88,1.31-1.81,2.53-2.82,3.88-1.3-.95-2.54-1.86-3.88-2.84Z"/>
  <path class="cls-2" d="m602.1,285.35c-.98,1.3-1.91,2.52-2.9,3.83-1.31-.99-2.53-1.92-3.83-2.91.98-1.29,1.91-2.51,2.9-3.82,1.31.99,2.53,1.91,3.83,2.89Z"/>
  <path class="cls-2" d="m569.43,210.39c-1.71-.29-3.18-.54-4.73-.8.26-1.62.51-3.1.77-4.7,1.58.25,3.05.49,4.71.76-.25,1.59-.49,3.1-.74,4.75Z"/>
  <path class="cls-2" d="m518.63,279c-1.47.73-2.84,1.41-4.3,2.14-.73-1.47-1.41-2.84-2.13-4.3,1.45-.72,2.8-1.39,4.3-2.13.72,1.44,1.4,2.81,2.13,4.29Z"/>
  <path class="cls-2" d="m606.14,278.36c-.79,1.48-1.5,2.8-2.27,4.23-1.43-.77-2.75-1.47-4.23-2.27.75-1.4,1.46-2.74,2.25-4.23,1.42.76,2.77,1.48,4.24,2.27Z"/>
  <path class="cls-2" d="m526.7,295.99c.97-1.29,1.87-2.49,2.87-3.83,1.29.96,2.51,1.87,3.85,2.87-.96,1.28-1.88,2.51-2.88,3.84-1.29-.97-2.51-1.88-3.84-2.88Z"/>
  <path class="cls-2" d="m516.61,227.41c1-1.35,1.9-2.56,2.86-3.86,1.29.96,2.53,1.87,3.86,2.85-.96,1.29-1.85,2.49-2.86,3.85-1.29-.95-2.52-1.85-3.87-2.85Z"/>
  <path class="cls-2" d="m598.83,230.69c-.98-1.35-1.86-2.57-2.82-3.89,1.31-.95,2.56-1.85,3.89-2.82.95,1.31,1.83,2.53,2.82,3.88-1.29.94-2.52,1.84-3.89,2.83Z"/>
  <path class="cls-2" d="m534.27,211.12c1.52-.76,2.85-1.44,4.29-2.16.72,1.43,1.4,2.77,2.16,4.28-1.4.71-2.75,1.4-4.28,2.17-.72-1.44-1.41-2.79-2.16-4.29Z"/>
  <path class="cls-2" d="m553.81,302.62c-.27,1.64-.52,3.11-.79,4.73-1.6-.28-3.11-.53-4.72-.81.27-1.57.52-3.04.8-4.68,1.55.25,3.02.49,4.71.77Z"/>
  <path class="cls-2" d="m609.85,267.65c-1.62-.29-3.09-.56-4.7-.85.28-1.6.54-3.07.82-4.7,1.58.28,3.09.55,4.72.84-.28,1.57-.54,3.04-.84,4.71Z"/>
  <path class="cls-2" d="m509.55,269.22c1.6-.5,3.03-.95,4.58-1.43.48,1.53.92,2.96,1.42,4.56-1.54.48-2.99.94-4.57,1.44-.48-1.53-.93-2.96-1.43-4.57Z"/>
  <path class="cls-2" d="m576.44,212.47c-1.58-.52-3.01-1-4.55-1.51.5-1.54.98-2.99,1.49-4.54,1.56.51,3.01.99,4.55,1.51-.51,1.54-.97,2.96-1.5,4.55Z"/>
  <path class="cls-2" d="m530.35,219.52c-.96-1.35-1.84-2.57-2.8-3.91,1.31-.94,2.56-1.83,3.9-2.8.93,1.29,1.81,2.51,2.8,3.89-1.28.92-2.52,1.82-3.9,2.82Z"/>
  <path class="cls-2" d="m508.13,261.27c1.63-.24,3.1-.46,4.74-.69.24,1.59.46,3.1.71,4.73-1.61.23-3.12.45-4.74.69-.24-1.59-.46-3.06-.71-4.73Z"/>
  <path class="cls-2" d="m509.04,245.2c1.62.28,3.13.54,4.72.81-.27,1.62-.52,3.09-.79,4.7-1.58-.26-3.05-.5-4.7-.77.26-1.6.5-3.11.77-4.74Z"/>
  <path class="cls-2" d="m516,283.97c1.36-.96,2.58-1.83,3.94-2.79.94,1.33,1.83,2.58,2.77,3.91-1.3.93-2.52,1.8-3.88,2.76-.98-1.21-1.79-2.51-2.83-3.88Z"/>
  <path class="cls-2" d="m549.43,205.53c1.62-.25,3.09-.47,4.68-.71.24,1.58.47,3.06.72,4.7-1.56.25-3.03.49-4.64.75-.43-1.55-.56-3.1-.76-4.74Z"/>
  <path class="cls-2" d="m539.8,298.63c-.79,1.5-1.49,2.81-2.25,4.23-1.45-.76-2.77-1.45-4.24-2.23.74-1.4,1.45-2.75,2.23-4.25,1.42.75,2.77,1.46,4.25,2.25Z"/>
  <path class="cls-2" d="m543.06,212.28c-.5-1.55-.95-2.97-1.45-4.55,1.54-.49,2.99-.95,4.56-1.45.5,1.56.96,2.98,1.46,4.55-1.54.49-2.99.94-4.57,1.44Z"/>
  <path class="cls-2" d="m606.1,251.22c-.25-1.6-.48-3.07-.74-4.71,1.61-.26,3.11-.5,4.72-.76.25,1.59.48,3.07.73,4.72-1.61.26-3.1.5-4.72.76Z"/>
  <path class="cls-2" d="m570.9,301.58c1.61-.49,3.04-.92,4.58-1.38.48,1.53.93,2.96,1.42,4.54-1.51.47-2.97.93-4.58,1.43-.48-1.54-.93-2.99-1.42-4.59Z"/>
  <path class="cls-2" d="m519.14,232.41c-.78,1.49-1.48,2.82-2.22,4.25-1.45-.76-2.81-1.46-4.26-2.22.76-1.45,1.45-2.77,2.22-4.25,1.43.75,2.79,1.45,4.26,2.22Z"/>
  <path class="cls-2" d="m607.85,237.99c.51,1.58.97,3,1.48,4.55-1.51.49-2.93.96-4.54,1.48-.5-1.52-.98-2.96-1.5-4.55,1.54-.5,2.96-.96,4.56-1.48Z"/>
  <path class="cls-2" d="m542.11,299.65c1.56.53,3.01,1.03,4.55,1.55-.53,1.54-1.02,2.95-1.55,4.51-1.53-.51-2.94-.99-4.54-1.53.52-1.52,1.01-2.97,1.54-4.53Z"/>
  <path class="cls-2" d="m569.1,306.87c-1.64.23-3.12.43-4.75.66-.22-1.6-.42-3.11-.64-4.72,1.63-.23,3.11-.44,4.71-.67.23,1.58.44,3.06.69,4.74Z"/>
  <path class="cls-2" d="m607.45,275.35c-1.55-.54-2.99-1.04-4.53-1.57.52-1.5,1.01-2.91,1.54-4.44,1.57.32,2.94.99,4.57,1.48-.54,1.54-1.04,2.98-1.58,4.53Z"/>
  <path class="cls-2" d="m580.97,209.19c1.48.76,2.84,1.47,4.26,2.2-.75,1.46-1.44,2.79-2.2,4.27-1.44-.74-2.79-1.44-4.26-2.2.76-1.46,1.45-2.82,2.2-4.26Z"/>
  <path class="cls-2" d="m509.84,242.01c.53-1.57,1.02-2.99,1.54-4.52,1.53.51,2.96.98,4.54,1.5-.51,1.53-1,2.97-1.53,4.53-1.53-.51-2.95-.98-4.55-1.51Z"/>
  <path class="cls-2" d="m531.22,258.03c.68-.06,1.22-.11,1.84-.17v-3.39c-.52-.07-1.06-.14-1.6-.21-.67-2.73,1.82-11.66,6.77-16.75.44.36.89.73,1.3,1.05.84-.78,1.65-1.53,2.49-2.31-.4-.46-.76-.89-1.21-1.42,4.85-4.17,10.38-6.49,16.77-6.96.07.38.14.67.18.96.05.29.07.59.11.93h3.31c.07-.63.13-1.22.2-1.89,6.42.47,11.96,2.8,16.8,6.98-.41.5-.76.93-1.18,1.44.82.74,1.62,1.46,2.49,2.24.31-.25.74-.59,1.31-1.05,4.19,4.81,6.44,10.35,6.98,16.7-.66.11-1.2.19-1.81.29v3.35c.57.06,1.11.13,1.79.2-.47,6.37-2.77,11.9-6.96,16.76-.52-.42-.95-.77-1.45-1.18-.41.4-.79.8-1.21,1.16-.39.34-.82.64-1.3,1,.53.67.89,1.13,1.31,1.66-4.83,4.18-10.38,6.48-16.79,6.98-.04-.4-.08-.69-.11-.98-.03-.25-.05-.51-.08-.81-.28-.05-.53-.12-.78-.12-.82-.02-1.64,0-2.5,0-.12.67-.22,1.25-.32,1.81-4.79.05-12.25-2.56-16.7-6.9.35-.45.72-.91,1.11-1.4-.21-.24-.4-.47-.6-.69-.53-.57-1.07-1.12-1.64-1.73-.58.45-1.05.82-1.59,1.24-4.14-4.85-6.51-10.36-6.95-16.8Zm47.49-1.86c0-10.08-7.96-19.19-19.17-19.24-10.8-.04-19.26,8.57-19.28,19.26-.02,10.58,8.7,19.2,19.24,19.19,10.55,0,19.22-8.68,19.21-19.22Z"/>
  <path class="cls-2" d="m549.97,320.04v2c0,20.87,0,41.74-.02,62.61,0,1.09.3,1.85,1.09,2.61,2.62,2.53,5.15,5.16,7.76,7.7.72.7.97,1.42.97,2.4-.02,16.23,0,32.45-.04,48.68,0,1.07.23,1.88,1.06,2.62,1.29,1.15,2.44,2.46,3.71,3.65.59.55.8,1.13.79,1.93-.03,8.11-.02,16.23-.02,24.34,0,.47,0,.95,0,1.46,1.14.46,2.26.95,2.63,2.18.21.72.3,1.55.16,2.28-.28,1.49-1.86,2.58-3.38,2.51-1.51-.06-2.88-1.17-3.22-2.59-.44-1.88.42-3.24,2.86-4.43,0-.33,0-.71,0-1.1,0-8.07-.01-16.14.02-24.21,0-.85-.24-1.46-.86-2.04-1.3-1.22-2.5-2.54-3.8-3.75-.66-.61-.91-1.25-.91-2.15.03-8.5.02-17.01.02-25.51,0-7.81-.02-15.62.03-23.43,0-1.1-.33-1.85-1.1-2.59-2.62-2.54-5.15-5.16-7.76-7.7-.65-.63-.88-1.28-.88-2.17.02-21.26.02-42.52.02-63.78,0-.35-.03-.71.07-1.03.05-.16.36-.23.8-.48Z"/>
  <path class="cls-2" d="m567.51,320.04c.18.17.47.32.52.52.09.42.05.86.05,1.3,0,11.63.01,23.25-.02,34.88,0,.99.28,1.69.99,2.39,4.78,4.73,9.5,9.52,14.29,14.23.82.81,1.1,1.61,1.1,2.73-.04,7.16-.02,14.32-.02,21.47v1.51c2.43,1.17,3.32,2.49,2.93,4.23-.38,1.72-1.72,2.79-3.44,2.76-1.65-.03-2.95-1.13-3.29-2.78-.36-1.74.54-3.08,2.86-4.16.02-.37.06-.79.06-1.22,0-7.25-.01-14.49.02-21.74,0-.9-.28-1.53-.92-2.16-4.9-4.86-9.76-9.75-14.65-14.61-.56-.56-.82-1.11-.82-1.93.03-12.02.02-24.03.02-36.05,0-.38.03-.77.05-1.15.09-.08.18-.15.27-.23Z"/>
  <path class="cls-2" d="m583.46,312.7c.18.17.46.32.5.52.09.37.05.77.05,1.16,0,8.24.02,16.49-.02,24.73,0,1.04.32,1.77,1.05,2.49,3.38,3.31,6.69,6.68,10.05,10.01.56.56.82,1.1.82,1.92-.03,14.97-.02,29.94-.02,44.9v1.12c-.55.22-.88.17-.92-.38-.03-.43-.02-.87-.02-1.3,0-14.53-.01-29.07.02-43.6,0-1.04-.28-1.77-1.03-2.5-3.38-3.31-6.69-6.68-10.05-10.01-.53-.52-.79-1.04-.79-1.8.03-8.68.02-17.35.02-26.03,0-.34.03-.68.05-1.02.09-.07.19-.14.28-.21Z"/>
  <path class="cls-2" d="m533.76,313.93c0,.45,0,.92,0,1.38,0,7.89.01,15.78-.02,23.67,0,.85.23,1.47.85,2.04,1.08,1,2.08,2.08,3.14,3.11.85.82,1.79,1.58,1.38,2.91,2.46,1.28,3.31,2.65,2.81,4.45-.45,1.62-1.81,2.61-3.48,2.55-1.65-.06-2.9-1.18-3.21-2.86-.33-1.77.56-3.04,2.84-4.06.26-.74.02-1.3-.54-1.84-1.38-1.32-2.69-2.7-4.06-4.03-.47-.46-.68-.94-.68-1.6.02-8.24,0-16.47.02-24.71,0-.52-.17-1.23.94-1.01Z"/>
  <path class="cls-2" d="m549.36,195.05v-1.27c0-8.5.01-17.01-.02-25.51,0-.89.23-1.53.88-2.16,3.37-3.31,6.68-6.69,10.06-10,.68-.67.94-1.33.94-2.28-.03-14.62-.02-29.24-.02-43.86,0-.39,0-.78.01-1.17.02-.44.27-.6.87-.48.02.45.05.94.05,1.44,0,8.46,0,16.92,0,25.38,0,6.38-.02,12.75.02,19.13,0,.96-.29,1.6-.96,2.26-3.31,3.25-6.56,6.57-9.87,9.82-.77.75-1.11,1.5-1.11,2.6.05,8.2.03,16.4.03,24.6,0,.39.04.79-.04,1.17-.05.21-.31.36-.48.54l-.37-.2Z"/>
  <path class="cls-2" d="m568.35,194.4c-.56.2-.91.18-.95-.39-.02-.3-.01-.61-.01-.91,0-9.28.01-18.57-.02-27.85,0-.9.24-1.56.91-2.15.87-.77,1.68-1.62,2.52-2.44-.15-.42-.27-.74-.38-1.06-.52-1.56-.01-3.11,1.31-4,1.33-.89,3.03-.77,4.21.31,1.12,1.03,1.43,2.84.71,4.18-.75,1.39-2.28,2.06-3.88,1.67-.41-.1-.8-.29-1.28-.46-.94.94-1.91,1.86-2.82,2.84-.21.22-.28.61-.31.93-.05.52-.01,1.04-.01,1.56,0,8.76,0,17.53,0,26.29v1.5Z"/>
  <path class="cls-2" d="m538.15,165.19c-2.41-1.11-3.24-2.4-2.78-4.32.39-1.6,1.8-2.7,3.4-2.66,1.59.05,2.98,1.23,3.3,2.82.35,1.73-.63,3.21-2.68,4.05-.04.07-.13.15-.12.21.13,1.15-.45,1.93-1.26,2.67-1.12,1.02-2.12,2.17-3.24,3.19-.7.63-.96,1.31-.95,2.26.04,7.84.02,15.69.02,23.53,0,.47,0,.94,0,1.44-.5.13-.86.18-.92-.39-.04-.34-.02-.69-.02-1.04,0-7.97.02-15.95-.02-23.92,0-.95.27-1.62.96-2.26,1.3-1.21,2.5-2.52,3.79-3.74.57-.54.79-1.1.53-1.84Z"/>
  <path class="cls-2" d="m584.27,197.9c-.2-.31-.34-.53-.55-.84,1.28-1.28,2.53-2.58,3.84-3.83.58-.55.82-1.11.82-1.93-.03-8.98-.03-17.95,0-26.93,0-.81-.22-1.38-.8-1.93-1.29-1.22-2.5-2.53-3.79-3.75-.65-.61-.91-1.25-.9-2.15.04-5.77.02-11.53.02-17.3,0-.47,0-.94,0-1.48-1.37-.42-2.52-1.04-3.11-2.38-.38-.88-.4-1.78-.19-2.68.4-1.69,2.08-2.85,3.92-2.77,1.89.08,3.37,1.44,3.69,3.41.3,1.82-.89,3.42-3.43,4.46v1.33c0,5.64.02,11.27-.02,16.91,0,.89.22,1.55.88,2.17,1.27,1.18,2.44,2.47,3.7,3.65.62.58.86,1.19.86,2.04-.03,8.11-.02,16.22-.02,24.32,0,1.3.02,2.6-.01,3.9,0,.36-.07.83-.3,1.07-1.46,1.54-2.96,3.02-4.61,4.69Zm-3.92-64.06c.03,1.58,1.46,2.96,3.04,2.92,1.59-.04,2.97-1.5,2.9-3.06-.07-1.54-1.44-2.86-2.97-2.85-1.6,0-2.99,1.42-2.97,2.99Z"/>
  <path class="cls-2" d="m621.01,266.74c.42,0,.85,0,1.27,0,11.93,0,23.85,0,35.78-.02.9,0,1.52.28,2.15.91,4.79,4.84,9.63,9.63,14.42,14.46.69.69,1.37,1.02,2.37,1.02,7.15-.04,14.31-.02,21.47-.02.43,0,.86,0,1.33,0,.18-.39.34-.74.51-1.07.75-1.45,2.28-2.19,3.79-1.83,1.62.39,2.72,1.75,2.71,3.37,0,1.61-1.11,2.95-2.76,3.33-1.49.35-3.05-.42-3.77-1.87-.15-.3-.27-.63-.44-1.05-.51,0-1.02,0-1.53,0-7.29,0-14.57-.02-21.86.02-.9,0-1.53-.26-2.16-.9-4.79-4.83-9.63-9.62-14.41-14.47-.73-.74-1.48-1.02-2.51-1.02-11.62.03-23.24.02-34.87.02-.39,0-.79.04-1.16-.05-.2-.05-.36-.32-.53-.49.07-.12.14-.24.2-.35Z"/>
</svg>